<?xml version="1.0" encoding="UTF-8"?>
<!DOCTYPE svg PUBLIC "-//W3C//DTD SVG 1.1//EN" "http://www.w3.org/Graphics/SVG/1.1/DTD/svg11.dtd">
<svg xmlns="http://www.w3.org/2000/svg" version="1.1" width="512px" height="512px" style="shape-rendering:geometricPrecision; text-rendering:geometricPrecision; image-rendering:optimizeQuality; fill-rule:evenodd; clip-rule:evenodd" xmlns:xlink="http://www.w3.org/1999/xlink">
<g><path style="opacity:0.996" fill="#1890ff" d="M 74.5,15.5 C 173.834,15.3333 273.167,15.5 372.5,16C 377.359,18.1921 380.859,21.6921 383,26.5C 383.5,41.8297 383.667,57.163 383.5,72.5C 322.116,71.6813 275.45,97.1813 243.5,149C 206.167,149.333 168.833,149.667 131.5,150C 124.163,152.346 120.163,157.346 119.5,165C 120.582,172.836 124.915,177.836 132.5,180C 165.172,180.167 197.838,180.667 230.5,181.5C 226.879,193.56 224.879,205.893 224.5,218.5C 193.832,218.333 163.165,218.5 132.5,219C 120.336,223.514 117.169,231.681 123,243.5C 124.938,246.106 127.438,247.939 130.5,249C 162.498,249.5 194.498,249.667 226.5,249.5C 228.598,262.627 232.598,275.127 238.5,287C 202.461,287.033 166.461,287.699 130.5,289C 122.129,292.909 118.963,299.409 121,308.5C 123.601,315.053 128.434,318.553 135.5,319C 176.5,319.333 217.5,319.667 258.5,320C 291.306,358.222 332.972,376.389 383.5,374.5C 383.667,398.502 383.5,422.502 383,446.5C 379.426,456.74 372.26,462.573 361.5,464C 349.5,464.667 337.5,464.667 325.5,464C 314.74,462.573 307.574,456.74 304,446.5C 303.929,429.123 303.262,411.789 302,394.5C 300.167,390 297,386.833 292.5,385C 216.167,384.5 139.834,384.333 63.5,384.5C 63.3333,265.166 63.5,145.833 64,26.5C 66.3308,21.6702 69.8308,18.0035 74.5,15.5 Z M 135.5,79.5 C 167.502,79.3334 199.502,79.5 231.5,80C 243.343,81.8466 248.176,88.6799 246,100.5C 243.399,107.053 238.566,110.553 231.5,111C 199.5,111.667 167.5,111.667 135.5,111C 121.656,107.813 117.49,99.6463 123,86.5C 126.464,82.6898 130.631,80.3564 135.5,79.5 Z"/></g>
<g><path style="opacity:0.992" fill="#1890ff" d="M 360.5,103.5 C 419.377,100.009 461.544,124.676 487,177.5C 505.717,232.467 493.551,279.301 450.5,318C 413.302,345.253 372.968,350.92 329.5,335C 276.525,309.569 252.025,267.402 256,208.5C 263.48,163.355 287.98,131.188 329.5,112C 339.748,108.358 350.081,105.524 360.5,103.5 Z M 373.5,140.5 C 381.169,140.412 386.669,143.745 390,150.5C 390.923,154.79 391.423,159.123 391.5,163.5C 398.841,163.334 406.174,163.5 413.5,164C 424.062,168.969 426.896,176.802 422,187.5C 418.936,191.113 415.102,193.28 410.5,194C 394.167,194.333 377.833,194.667 361.5,195C 356.602,198.522 356.269,202.522 360.5,207C 372.195,207.232 383.862,207.898 395.5,209C 416.69,216.189 426.19,231.023 424,253.5C 419.153,269.68 408.486,279.68 392,283.5C 391.815,289.987 390.149,295.987 387,301.5C 376.552,308.886 367.885,307.22 361,296.5C 360.077,292.21 359.577,287.877 359.5,283.5C 352.159,283.666 344.826,283.5 337.5,283C 326.938,278.031 324.104,270.198 329,259.5C 332.064,255.887 335.898,253.72 340.5,253C 356.833,252.667 373.167,252.333 389.5,252C 394.398,248.478 394.731,244.478 390.5,240C 378.805,239.768 367.138,239.102 355.5,238C 334.31,230.811 324.81,215.977 327,193.5C 331.682,177.485 342.182,167.652 358.5,164C 359.397,158.792 360.564,153.626 362,148.5C 364.913,144.406 368.746,141.74 373.5,140.5 Z"/></g>
<g><path style="opacity:0.997" fill="#1890ff" d="M 15.5,415.5 C 100.833,415.5 186.167,415.5 271.5,415.5C 271.279,426.866 271.779,438.2 273,449.5C 279.258,475.757 295.758,490.923 322.5,495C 232.833,495.667 143.167,495.667 53.5,495C 33.6667,489.833 21.1667,477.333 16,457.5C 15.5001,443.504 15.3334,429.504 15.5,415.5 Z"/></g>
</svg>
